<svg width="149" height="149" viewBox="0 0 149 149" fill="none" xmlns="http://www.w3.org/2000/svg">
<path d="M74.4967 29.4902C72.6623 29.4902 70.8458 29.8515 69.1511 30.5535C67.4563 31.2555 65.9164 32.2845 64.6193 33.5816C63.3222 34.8787 62.2932 36.4186 61.5912 38.1134C60.8892 39.8081 60.5279 41.6246 60.5279 43.459C60.5279 45.2934 60.8892 47.1098 61.5912 48.8046C62.2932 50.4994 63.3222 52.0393 64.6193 53.3364C65.9164 54.6335 67.4563 55.6624 69.1511 56.3644C70.8458 57.0664 72.6623 57.4277 74.4967 57.4277C78.2014 57.4277 81.7544 55.956 84.3741 53.3364C86.9937 50.7167 88.4654 47.1637 88.4654 43.459C88.4654 39.7542 86.9937 36.2012 84.3741 33.5816C81.7544 30.9619 78.2014 29.4902 74.4967 29.4902ZM51.2154 43.459C51.2154 37.2844 53.6683 31.3627 58.0343 26.9967C62.4004 22.6306 68.3221 20.1777 74.4967 20.1777C80.6712 20.1777 86.5929 22.6306 90.959 26.9967C95.3251 31.3627 97.7779 37.2844 97.7779 43.459C97.7779 49.6336 95.3251 55.5552 90.959 59.9213C86.5929 64.2874 80.6712 66.7402 74.4967 66.7402C68.3221 66.7402 62.4004 64.2874 58.0343 59.9213C53.6683 55.5552 51.2154 49.6336 51.2154 43.459ZM57.8211 79.5853C58.6406 80.1937 59.696 80.9077 60.9563 81.6154C64.1412 83.4158 68.8098 85.2783 74.4905 85.2783C80.1711 85.2783 84.846 83.4158 88.0308 81.6154C89.2911 80.9077 90.3465 80.1937 91.166 79.5853C92.3332 79.8957 93.49 80.2392 94.6365 80.6159L100.597 82.5715C105.067 84.0429 108.444 87.6127 109.648 92.0268L112.113 109.807C112.579 113.185 110.809 115.637 108.351 116.221C101.851 117.773 90.8929 119.511 74.4967 119.511C58.1005 119.511 47.1365 117.773 40.6364 116.221C38.1841 115.637 36.4148 113.185 36.8742 109.807L39.3389 92.0268C39.9513 89.8257 41.0989 87.8104 42.6794 86.1606C44.2599 84.5108 46.2241 83.2778 48.3968 82.5715L54.3568 80.6159C55.4992 80.2434 56.6539 79.8998 57.8211 79.5853ZM62.229 71.173L60.4224 69.3912L57.9266 69.9624C55.7496 70.459 53.5891 71.0612 51.4451 71.769L45.4851 73.7246C41.7826 74.9282 38.4444 77.0482 35.7808 79.8876C33.1172 82.7271 31.2146 86.1938 30.2499 89.9656L30.1878 90.2139L27.6548 108.529C26.6553 115.755 30.523 123.385 38.4821 125.279C45.7459 127.011 57.43 128.824 74.4905 128.824C91.5572 128.824 103.241 127.011 110.505 125.285C118.464 123.385 122.338 115.755 121.339 108.535L118.799 90.2202L118.737 89.9718C117.773 86.1982 115.87 82.7297 113.205 79.889C110.54 77.0484 107.2 74.9278 103.496 73.7246L97.542 71.769C95.4022 71.0654 93.2417 70.4652 91.0605 69.9686L88.5648 69.3912L86.7643 71.1668L86.7581 71.173C86.5181 71.3917 86.2696 71.6008 86.0131 71.8C85.2128 72.4359 84.3614 73.0049 83.4677 73.5011C80.7383 75.0786 77.6489 75.9273 74.4967 75.9658C71.3444 75.9273 68.2551 75.0786 65.5256 73.5011C64.3527 72.8386 63.244 72.0586 62.229 71.173Z" fill="#EA9300"/>
</svg>
