<svg width="63" height="64" viewBox="0 0 63 64" fill="none" xmlns="http://www.w3.org/2000/svg">
<path d="M49.875 11H13.125C11.0364 11 9.03338 11.8297 7.55653 13.3065C6.07969 14.7834 5.25 16.7864 5.25 18.875V45.125C5.25 47.2136 6.07969 49.2166 7.55653 50.6935C9.03338 52.1703 11.0364 53 13.125 53H49.875C51.9636 53 53.9666 52.1703 55.4435 50.6935C56.9203 49.2166 57.75 47.2136 57.75 45.125V18.875C57.75 16.7864 56.9203 14.7834 55.4435 13.3065C53.9666 11.8297 51.9636 11 49.875 11ZM49.875 16.25L32.8125 27.9838C32.4135 28.2141 31.9608 28.3354 31.5 28.3354C31.0392 28.3354 30.5865 28.2141 30.1875 27.9838L13.125 16.25H49.875Z" fill="#EA9300"/>
</svg>
