<svg width="115" height="115" viewBox="0 0 115 115" fill="none" xmlns="http://www.w3.org/2000/svg">
<path d="M102.018 66.6029L86.2538 57.4987L102.018 48.3945C104.318 47.0529 105.085 44.1299 103.791 41.8299L94.208 25.2508C93.5667 24.1515 92.5182 23.349 91.2895 23.0172C90.0608 22.6853 88.7509 22.8509 87.6434 23.4779L71.8788 32.582V14.3737C71.8788 11.7383 69.7225 9.58203 67.0871 9.58203H47.9205C45.285 9.58203 43.1288 11.7383 43.1288 14.3737V32.582L27.3642 23.4779C26.2567 22.8509 24.9468 22.6853 23.7181 23.0172C22.4894 23.349 21.4409 24.1515 20.7996 25.2508L11.2163 41.8299C9.87463 44.1299 10.6892 47.0529 12.9892 48.3945L28.7538 57.4987L12.9892 66.6029C10.6892 67.9445 9.92255 70.8675 11.2163 73.1675L20.7996 89.7466C22.1413 92.0466 25.0642 92.8133 27.3642 91.5195L43.1288 82.4154V100.624C43.1288 103.259 45.285 105.415 47.9205 105.415H67.0871C69.7225 105.415 71.8788 103.259 71.8788 100.624V82.4154L87.6434 91.5195C89.9434 92.8612 92.8663 92.0466 94.208 89.7466L103.791 73.1675C105.133 70.8675 104.318 67.9445 102.018 66.6029ZM88.3142 80.8341L65.8892 67.8966C64.308 66.9383 62.2955 68.0883 62.2955 69.957V95.832H52.7121V69.957C52.7121 68.1362 50.6996 66.9383 49.1184 67.8966L26.6934 80.8341L21.9017 72.5445L44.3267 59.607C45.908 58.6966 45.908 56.3966 44.3267 55.4383L21.9017 42.5008L26.6934 34.2112L49.1184 47.1487C50.6996 48.0591 52.7121 46.9091 52.7121 45.0404V19.1654H62.2955V45.0404C62.2955 46.8612 64.308 48.0591 65.8892 47.1008L88.3142 34.1633L93.1059 42.4529L70.6809 55.3904C69.0996 56.3008 69.0996 58.6008 70.6809 59.5591L93.1059 72.4966L88.3142 80.8341Z" fill="#0BDF00"/>
</svg>
