<svg width="716" height="716" viewBox="0 0 716 716" fill="none" xmlns="http://www.w3.org/2000/svg">
<path d="M238.718 289.96C236.451 289.589 234.833 289.715 233.229 289.695C232.009 289.675 230.789 289.754 229.569 289.708C227.057 289.615 225.943 288.581 225.512 286.055C225.2 284.219 225.399 282.395 225.804 280.605C226.122 279.18 227.129 278.338 228.588 278.179C229.496 278.079 230.418 278.099 231.326 278.106C237.226 278.106 243.127 278.099 249.02 278.146C250.426 278.159 251.659 277.894 252.521 276.707C254.265 274.301 256.744 273.286 259.581 273.001C260.894 272.869 262.22 272.816 263.539 272.809C269.234 272.796 274.929 272.816 280.631 272.822C281.24 272.822 281.857 272.842 282.46 272.789C283.74 272.676 284.164 271.861 283.574 270.641C283.309 270.091 282.977 269.58 282.672 269.05C278.204 261.3 273.683 253.583 269.307 245.78C268.167 243.751 266.695 242.598 264.474 242.034C261.822 241.365 259.243 240.41 256.625 239.601C255.756 239.329 254.868 239.111 253.986 238.878C251.739 238.275 249.756 238.905 248 240.297C247.211 240.927 246.495 241.67 245.838 242.439C242.881 245.879 239.103 247.59 234.621 247.775C226.513 248.114 220.042 245.084 216.025 237.924C210.025 227.237 214.971 214.064 227.507 209.914C236.835 206.824 249.199 212.864 251.414 224.002C251.652 225.195 251.772 226.415 251.944 227.621C252.276 229.962 252.972 230.77 255.305 231.314C256.983 231.705 258.693 231.957 260.377 232.322C267.683 233.913 273.338 237.937 277.621 243.997C279.444 246.582 280.902 249.373 282.129 252.284C283.952 256.613 286.485 260.544 289.044 264.462C289.15 264.621 289.349 264.727 289.627 264.966C303.344 250.712 319.958 242.87 339.933 242.737C359.795 242.604 376.482 250.089 390.517 264.283C390.967 263.68 391.345 263.242 391.657 262.758C394.11 259.013 396.41 255.201 398.074 251.004C399.394 247.689 401.323 244.679 403.63 241.935C408.264 236.419 414.204 233.17 421.238 231.838C422.339 231.632 423.433 231.4 424.547 231.288C426.363 231.102 427.205 229.968 427.57 228.344C427.702 227.754 427.729 227.137 427.782 226.528C428.79 215.038 438.621 209.516 446.265 209.125C454.479 208.707 463.244 215.038 465.538 223.968C467.957 233.376 462.68 245.084 450.25 247.444C443.302 248.763 437.169 246.688 432.376 241.265C432.104 240.96 431.833 240.655 431.607 240.317C430.261 238.308 428.352 238.003 426.23 238.627C423.214 239.508 420.217 240.47 417.234 241.451C414.025 242.505 411.539 244.553 409.663 247.331C408.582 248.929 407.561 250.573 406.587 252.244C403.318 257.872 400.09 263.514 396.848 269.156C396.596 269.594 396.364 270.044 396.066 270.601C396.49 271.271 396.914 271.934 397.398 272.69C398.326 272.736 399.221 272.822 400.123 272.822C405.307 272.829 410.498 272.776 415.683 272.816C417.4 272.829 419.124 273.021 420.841 273.2C423.38 273.465 425.514 274.592 427.106 276.588C428.087 277.821 429.214 278.205 430.798 278.172C436.997 278.053 443.202 278.099 449.408 278.086C449.713 278.086 450.018 278.086 450.323 278.113C452.696 278.285 453.823 279.313 454.009 281.713C454.128 283.224 454.128 284.769 453.995 286.28C453.803 288.455 452.61 289.562 450.435 289.701C449.017 289.787 447.591 289.728 446.166 289.741C444.667 289.754 443.209 289.96 441.671 290.742C442.911 292.028 444.363 292.758 445.662 293.686C446.404 294.216 447.22 294.667 447.889 295.277C449.142 296.417 449.182 298.121 448.075 299.367C447.101 300.461 445.052 300.574 443.938 299.533C443.421 299.049 443.003 298.466 442.579 297.895C441.399 296.311 439.894 295.104 438.157 294.223C435.426 292.83 432.495 292.015 429.492 291.438C428.418 291.233 427.517 291.425 426.648 292.108C423.625 294.488 420.065 295.171 416.332 295.144C414.808 295.131 413.289 294.945 411.765 294.886C410.77 294.846 409.769 294.879 408.569 294.879C408.682 295.694 408.708 296.377 408.874 297.027C410.631 303.889 411.095 310.856 410.757 317.904C410.346 326.31 408.41 334.378 405.473 342.234C402.357 350.561 398.28 358.411 393.122 365.63C386.976 374.236 380.718 382.768 374.234 391.115C363.746 404.599 353.033 417.912 342.405 431.29C341.849 431.993 341.225 432.636 340.543 433.405C339.402 432.795 338.832 431.807 338.162 430.965C330.346 421.2 322.517 411.441 314.767 401.629C306.194 390.777 297.708 379.851 289.687 368.581C283.587 360.008 278.476 350.906 274.883 340.988C271.919 332.8 270.209 324.361 269.917 315.663C269.712 309.537 270.414 303.484 271.833 297.518C271.952 297.027 272.065 296.53 272.145 296.033C272.171 295.847 272.092 295.648 272.052 295.443C271.654 294.833 270.998 294.952 270.414 294.939C267.975 294.892 265.535 294.886 263.095 294.852C262.081 294.839 261.06 294.813 260.046 294.786C257.738 294.727 255.617 294.097 253.887 292.525C252.634 291.385 251.228 291.14 249.644 291.498C246.766 292.148 243.949 292.983 241.304 294.329C239.268 295.363 237.611 296.835 236.398 298.784C235.675 299.944 234.647 300.408 233.295 300.256C232.175 300.13 231.432 299.553 230.981 298.532C230.53 297.491 230.65 296.51 231.372 295.681C231.83 295.157 232.427 294.74 233.003 294.335C234.422 293.348 235.874 292.413 237.293 291.425C237.671 291.127 237.962 290.729 238.718 289.96ZM340.509 398.792C341.438 397.691 342.173 396.869 342.856 395.994C351.972 384.406 361.128 372.85 370.164 361.202C373.213 357.27 376.091 353.187 378.776 348.997C384.716 339.709 388.64 329.691 389.436 318.547C389.794 313.508 389.323 308.602 388.163 303.743C385.717 293.533 380.334 285.001 372.57 278.073C360.564 267.346 346.503 263.554 330.684 266.63C319.904 268.732 311.054 274.228 303.901 282.475C293.479 294.481 289.428 308.37 291.994 324.083C292.915 329.724 294.772 335.094 297.211 340.279C299.817 345.828 303.092 350.959 306.705 355.885C317.173 370.158 328.278 383.928 339.369 397.718C339.608 398.023 339.939 398.261 340.509 398.792Z" fill="black"/>
<path d="M340.51 398.792C339.934 398.262 339.602 398.023 339.364 397.725C328.279 383.935 317.168 370.166 306.699 355.892C303.086 350.966 299.811 345.828 297.206 340.286C294.773 335.108 292.91 329.731 291.988 324.09C289.423 308.377 293.473 294.488 303.895 282.482C311.055 274.235 319.899 268.739 330.679 266.637C346.497 263.555 360.552 267.353 372.565 278.08C380.321 285.008 385.711 293.54 388.158 303.75C389.318 308.603 389.795 313.515 389.43 318.554C388.635 329.698 384.71 339.716 378.77 349.004C376.092 353.194 373.208 357.278 370.158 361.209C361.129 372.864 351.966 384.413 342.851 396.001C342.174 396.863 341.439 397.692 340.51 398.792ZM317.678 318.7C317.214 328.598 325.375 340.717 339.695 340.849C352.417 340.969 362.05 330.699 362.037 318.64C362.024 307.807 353.975 296.895 339.635 296.391C324.812 297.074 317.214 309.04 317.678 318.7Z" fill="#F59E0B"/>
<path d="M317.679 318.697C317.215 309.044 324.813 297.071 339.637 296.388C353.976 296.892 362.018 307.804 362.038 318.637C362.058 330.703 352.418 340.966 339.696 340.847C325.376 340.714 317.209 328.595 317.679 318.697Z" fill="black"/>
<path d="M94.3465 419.588H145.826V433.079H111.066V454.46H137.698V467.719H111.066V502.956H94.3398V419.588H94.3465Z" fill="black"/>
<path d="M174.354 502.956H157.628V436.785H174.354V447.055C178.538 440.246 185.459 435.831 194.661 435.831V453.386H190.239C180.328 453.386 174.354 457.205 174.354 469.986V502.956Z" fill="black"/>
<path d="M234.768 504.03C215.542 504.03 201.566 490.651 201.566 469.867C201.566 448.964 215.184 435.711 234.768 435.711C253.874 435.711 267.372 448.732 267.372 468.442C267.372 470.59 267.253 472.738 266.895 474.886H218.525C219.36 484.685 226.05 490.174 234.41 490.174C241.576 490.174 245.514 486.594 247.669 482.172H265.701C262.121 494.357 251.13 504.03 234.768 504.03ZM218.651 463.655H250.056C249.817 454.937 242.896 449.441 234.29 449.441C226.295 449.448 219.964 454.579 218.651 463.655Z" fill="black"/>
<path d="M308.438 504.03C289.212 504.03 275.236 490.651 275.236 469.867C275.236 448.964 288.854 435.711 308.438 435.711C327.544 435.711 341.042 448.732 341.042 468.442C341.042 470.59 340.923 472.738 340.565 474.886H292.195C293.03 484.685 299.72 490.174 308.08 490.174C315.24 490.174 319.184 486.594 321.339 482.172H339.371C335.791 494.357 324.799 504.03 308.438 504.03ZM292.314 463.655H323.725C323.487 454.937 316.565 449.441 307.96 449.441C299.958 449.448 293.634 454.579 292.314 463.655Z" fill="black"/>
<path d="M379.241 435.71C387.959 435.71 396.313 439.774 400.861 445.979V414.574H417.819V502.954H400.861V493.155C396.923 499.248 389.511 504.028 379.122 504.028C362.283 504.028 348.904 490.291 348.904 469.627C348.904 448.962 362.283 435.71 379.241 435.71ZM383.418 450.401C374.462 450.401 365.982 457.09 365.982 469.627C365.982 482.164 374.455 489.337 383.418 489.337C392.62 489.337 400.973 482.409 400.973 469.866C400.973 457.322 392.62 450.401 383.418 450.401Z" fill="black"/>
<path d="M463.536 504.03C444.423 504.03 429.977 490.651 429.977 469.867C429.977 448.964 444.907 435.711 464.013 435.711C483.126 435.711 498.056 448.971 498.056 469.867C498.05 490.651 482.762 504.03 463.536 504.03ZM463.536 489.451C472.373 489.451 480.852 483.007 480.852 469.867C480.852 456.608 472.605 450.283 463.768 450.283C454.931 450.283 446.929 456.615 446.929 469.867C446.935 483.007 454.579 489.451 463.536 489.451Z" fill="black"/>
<path d="M602.892 466.406C602.892 455.892 597.038 450.403 588.201 450.403C579.244 450.403 573.383 455.892 573.383 466.406V502.956H556.67V466.406C556.67 455.892 550.816 450.403 541.979 450.403C532.896 450.403 527.049 455.892 527.049 466.406V502.956H510.329V436.785H527.056V444.787C531.232 439.291 538.28 435.831 546.52 435.831C556.79 435.831 565.275 440.246 569.81 448.493C574.106 440.962 582.831 435.831 592.503 435.831C608.388 435.831 619.612 445.868 619.612 464.139V502.956H602.899V466.406H602.892Z" fill="black"/>
<path d="M535.394 544.455C535.118 542.125 533.999 540.317 532.037 539.029C530.076 537.742 527.67 537.098 524.819 537.098C522.735 537.098 520.911 537.435 519.348 538.11C517.8 538.784 516.589 539.711 515.716 540.891C514.857 542.071 514.428 543.412 514.428 544.914C514.428 546.171 514.727 547.251 515.325 548.156C515.938 549.045 516.719 549.788 517.67 550.386C518.62 550.968 519.616 551.451 520.658 551.834C521.7 552.202 522.658 552.501 523.532 552.73L528.313 554.018C529.539 554.34 530.903 554.784 532.405 555.351C533.923 555.918 535.371 556.692 536.75 557.673C538.145 558.639 539.294 559.88 540.198 561.397C541.103 562.914 541.555 564.777 541.555 566.983C541.555 569.528 540.888 571.826 539.555 573.88C538.237 575.934 536.306 577.566 533.762 578.777C531.233 579.987 528.16 580.593 524.543 580.593C521.171 580.593 518.252 580.049 515.784 578.961C513.332 577.872 511.401 576.355 509.991 574.409C508.597 572.462 507.807 570.202 507.624 567.627H513.509C513.662 569.405 514.26 570.876 515.302 572.041C516.359 573.19 517.693 574.049 519.302 574.616C520.926 575.167 522.673 575.443 524.543 575.443C526.719 575.443 528.673 575.091 530.405 574.386C532.137 573.665 533.509 572.669 534.52 571.397C535.532 570.11 536.037 568.608 536.037 566.891C536.037 565.328 535.601 564.056 534.727 563.075C533.854 562.095 532.704 561.298 531.279 560.685C529.854 560.072 528.313 559.535 526.658 559.075L520.865 557.42C517.187 556.363 514.275 554.853 512.129 552.891C509.984 550.93 508.911 548.363 508.911 545.19C508.911 542.554 509.624 540.255 511.049 538.294C512.489 536.317 514.42 534.784 516.842 533.696C519.279 532.592 521.999 532.041 525.003 532.041C528.037 532.041 530.735 532.585 533.095 533.673C535.455 534.746 537.325 536.217 538.704 538.087C540.099 539.956 540.834 542.079 540.911 544.455H535.394ZM565.549 544.455V549.052H547.25V544.455H565.549ZM552.584 535.995H558.009V569.65C558.009 571.183 558.231 572.332 558.676 573.098C559.135 573.849 559.718 574.355 560.423 574.616C561.143 574.861 561.902 574.983 562.699 574.983C563.296 574.983 563.787 574.953 564.17 574.892C564.553 574.815 564.86 574.754 565.089 574.708L566.193 579.581C565.825 579.719 565.312 579.857 564.653 579.995C563.994 580.148 563.158 580.225 562.147 580.225C560.614 580.225 559.112 579.895 557.641 579.236C556.185 578.577 554.974 577.574 554.009 576.225C553.059 574.876 552.584 573.175 552.584 571.121V535.995ZM584.101 580.593C581.863 580.593 579.833 580.171 578.009 579.328C576.185 578.47 574.737 577.236 573.664 575.627C572.591 574.003 572.055 572.041 572.055 569.742C572.055 567.719 572.453 566.079 573.25 564.822C574.047 563.55 575.112 562.554 576.446 561.834C577.779 561.114 579.25 560.577 580.86 560.225C582.484 559.857 584.116 559.566 585.756 559.351C587.902 559.075 589.641 558.868 590.975 558.731C592.323 558.577 593.304 558.324 593.917 557.972C594.546 557.619 594.86 557.006 594.86 556.133V555.949C594.86 553.681 594.239 551.918 592.998 550.661C591.772 549.405 589.91 548.776 587.411 548.776C584.821 548.776 582.791 549.343 581.319 550.478C579.848 551.612 578.814 552.822 578.216 554.11L573.066 552.271C573.986 550.125 575.212 548.455 576.745 547.259C578.293 546.048 579.978 545.205 581.802 544.73C583.641 544.24 585.45 543.995 587.228 543.995C588.362 543.995 589.664 544.133 591.136 544.409C592.622 544.669 594.055 545.213 595.434 546.041C596.829 546.868 597.986 548.117 598.906 549.788C599.825 551.458 600.285 553.696 600.285 556.501V579.765H594.86V574.983H594.584C594.216 575.75 593.603 576.57 592.745 577.443C591.887 578.317 590.745 579.06 589.319 579.673C587.894 580.286 586.155 580.593 584.101 580.593ZM584.929 575.719C587.074 575.719 588.883 575.298 590.354 574.455C591.841 573.612 592.959 572.524 593.71 571.19C594.477 569.857 594.86 568.455 594.86 566.983V562.018C594.63 562.294 594.124 562.547 593.343 562.777C592.576 562.991 591.687 563.183 590.676 563.351C589.68 563.504 588.706 563.642 587.756 563.765C586.821 563.872 586.063 563.964 585.48 564.041C584.07 564.225 582.752 564.524 581.526 564.937C580.316 565.336 579.335 565.941 578.584 566.754C577.848 567.55 577.48 568.639 577.48 570.018C577.48 571.903 578.178 573.328 579.572 574.294C580.982 575.244 582.768 575.719 584.929 575.719ZM625.912 544.455V549.052H606.877V544.455H625.912ZM612.578 579.765V539.581C612.578 537.558 613.053 535.872 614.004 534.523C614.954 533.175 616.188 532.163 617.705 531.489C619.222 530.815 620.824 530.477 622.509 530.477C623.843 530.477 624.931 530.585 625.774 530.799C626.617 531.014 627.245 531.213 627.659 531.397L626.096 536.087C625.82 535.995 625.437 535.88 624.946 535.742C624.471 535.604 623.843 535.535 623.061 535.535C621.268 535.535 619.973 535.987 619.176 536.891C618.394 537.795 618.004 539.121 618.004 540.868V579.765H612.578ZM649.239 544.455V549.052H630.205V544.455H649.239ZM635.906 579.765V539.581C635.906 537.558 636.381 535.872 637.331 534.523C638.282 533.175 639.515 532.163 641.033 531.489C642.55 530.815 644.151 530.477 645.837 530.477C647.17 530.477 648.259 530.585 649.102 530.799C649.944 531.014 650.573 531.213 650.987 531.397L649.423 536.087C649.148 535.995 648.764 535.88 648.274 535.742C647.799 535.604 647.17 535.535 646.389 535.535C644.596 535.535 643.301 535.987 642.504 536.891C641.722 537.795 641.331 539.121 641.331 540.868V579.765H635.906Z" fill="url(#paint0_linear_997_690)"/>
<defs>
<linearGradient id="paint0_linear_997_690" x1="503.945" y1="555.765" x2="651.945" y2="555.765" gradientUnits="userSpaceOnUse">
<stop stop-color="#F59E0B"/>
<stop offset="1" stop-color="#E61D2A"/>
</linearGradient>
</defs>
</svg>
