<svg width="56" height="56" viewBox="0 0 56 56" fill="none" xmlns="http://www.w3.org/2000/svg">
<path fill-rule="evenodd" clip-rule="evenodd" d="M38.6249 51.6434C35.2649 51.5198 25.7426 50.2038 15.7699 40.2334C5.79958 30.2608 4.48591 20.7408 4.35991 17.3784C4.17325 12.2544 8.09791 7.27744 12.6316 5.33377C13.1775 5.09803 13.7754 5.00827 14.3665 5.07331C14.9576 5.13836 15.5216 5.35596 16.0032 5.70477C19.7366 8.42544 22.3126 12.5414 24.5246 15.7778C25.0113 16.4888 25.2194 17.354 25.1092 18.2086C24.9991 19.0632 24.5783 19.8474 23.9272 20.4118L19.3749 23.7928C19.155 23.9516 19.0002 24.1848 18.9392 24.4492C18.8783 24.7135 18.9154 24.991 19.0436 25.2301C20.0749 27.1038 21.9089 29.8944 24.0089 31.9944C26.1089 34.0944 29.0326 36.0498 31.0369 37.1978C31.2882 37.3388 31.584 37.3783 31.8635 37.308C32.143 37.2377 32.3849 37.063 32.5396 36.8198L35.5029 32.3094C36.0477 31.5857 36.8514 31.1009 37.7457 30.9565C38.6399 30.8121 39.5554 31.0193 40.3002 31.5348C43.5832 33.8074 47.4146 36.3391 50.2192 39.9301C50.5964 40.4152 50.8363 40.9927 50.9138 41.6023C50.9914 42.2118 50.9038 42.831 50.6602 43.3951C48.7072 47.9521 43.7652 51.8324 38.6249 51.6434Z" fill="#EA9300"/>
</svg>
