<svg width="128" height="128" viewBox="0 0 128 128" fill="none" xmlns="http://www.w3.org/2000/svg">
<path d="M16 58.665L64 42.665L112 58.665M64 10.665V114.665" stroke="#E9A024" stroke-width="8"/>
<path d="M17.0293 74.665C21.6 97.5877 40.4053 109.401 52.7947 114.809C56.64 116.489 58.5653 117.332 64 117.332C69.44 117.332 71.36 116.489 75.2053 114.809C78.2933 113.465 81.7707 111.716 85.3333 109.508M101.333 95.4864C107.536 87.6144 112 77.3104 112 63.9504V55.5557C112 38.4997 112 29.9717 109.984 27.1024C107.973 24.2384 99.9573 21.4917 83.92 16.0037L80.864 14.9584C72.5067 12.0944 68.3307 10.665 64 10.665C59.6693 10.665 55.4933 12.0944 47.136 14.9584L44.08 15.9984C28.0427 21.4917 20.0267 24.2384 18.016 27.1024C16 29.9717 16 38.505 16 55.5557V58.665" stroke="#E9A024" stroke-width="8" stroke-linecap="round"/>
</svg>
