<svg width="65" height="65" viewBox="0 0 65 65" fill="none" xmlns="http://www.w3.org/2000/svg">
<path d="M46.0423 59.5827C42.2958 59.5827 39.1027 58.2619 36.4629 55.6204C33.8232 52.9789 32.5025 49.7857 32.5007 46.041C32.4988 42.2963 33.8196 39.1032 36.4629 36.4616C39.1063 33.8201 42.2994 32.4994 46.0423 32.4994C49.7852 32.4994 52.9793 33.8201 55.6244 36.4616C58.2695 39.1032 59.5894 42.2963 59.584 46.041C59.5786 49.7857 58.2578 52.9798 55.6217 55.6231C52.9856 58.2664 49.7925 59.5863 46.0423 59.5827ZM32.5007 59.5827C26.2263 58.0028 21.0462 54.4025 16.9602 48.7818C12.8743 43.1612 10.8322 36.9212 10.834 30.0619V13.541L32.5007 5.41602L54.1673 13.541V28.9108C52.9937 28.324 51.6729 27.8726 50.205 27.5566C48.7371 27.2407 47.3495 27.0827 46.0423 27.0827C40.8062 27.0827 36.3375 28.9334 32.6361 32.6348C28.9347 36.3362 27.084 40.8049 27.084 46.041C27.084 48.8396 27.6148 51.3674 28.6765 53.6244C29.7382 55.8813 31.0806 57.8448 32.7038 59.515C32.6586 59.515 32.6252 59.5267 32.6036 59.5502C32.5819 59.5737 32.5476 59.5845 32.5007 59.5827ZM46.0423 46.041C47.1708 46.041 48.1304 45.6465 48.9213 44.8575C49.7121 44.0684 50.1066 43.1088 50.1048 41.9785C50.103 40.8482 49.7085 39.8895 48.9213 39.1023C48.1341 38.315 47.1744 37.9196 46.0423 37.916C44.9102 37.9124 43.9515 38.3078 43.1661 39.1023C42.3806 39.8967 41.9852 40.8555 41.9798 41.9785C41.9744 43.1016 42.3698 44.0612 43.1661 44.8575C43.9623 45.6537 44.9211 46.0482 46.0423 46.041ZM46.0423 54.166C47.4416 54.166 48.7281 53.8383 49.9017 53.1829C51.0753 52.5275 52.0232 51.659 52.7454 50.5775C51.7524 49.9907 50.6916 49.5393 49.5631 49.2233C48.4347 48.9073 47.2611 48.7494 46.0423 48.7494C44.8236 48.7494 43.65 48.9073 42.5215 49.2233C41.393 49.5393 40.3322 49.9907 39.3392 50.5775C40.0614 51.6608 41.0093 52.5302 42.1829 53.1856C43.3566 53.841 44.643 54.1678 46.0423 54.166Z" fill="#EA9300"/>
</svg>
