<svg width="50" height="50" viewBox="0 0 50 50" fill="none" xmlns="http://www.w3.org/2000/svg">
<path d="M12.5007 41.6687C11.3548 41.6687 10.3743 41.261 9.55898 40.4457C8.74371 39.6305 8.33537 38.6492 8.33398 37.502V33.3353C8.33398 32.745 8.53398 32.2506 8.93398 31.852C9.33398 31.4534 9.82843 31.2534 10.4173 31.252C11.0062 31.2506 11.5013 31.4506 11.9027 31.852C12.3041 32.2534 12.5034 32.7478 12.5007 33.3353V37.502H37.5007V33.3353C37.5007 32.745 37.7007 32.2506 38.1007 31.852C38.5007 31.4534 38.9951 31.2534 39.584 31.252C40.1729 31.2506 40.668 31.4506 41.0694 31.852C41.4708 32.2534 41.6701 32.7478 41.6673 33.3353V37.502C41.6673 38.6478 41.2597 39.6291 40.4444 40.4457C39.6291 41.2624 38.6479 41.67 37.5007 41.6687H12.5007ZM22.9173 16.3562L19.0111 20.2624C18.5944 20.6791 18.1 20.8791 17.5277 20.8624C16.9555 20.8457 16.4604 20.6284 16.0423 20.2103C15.6604 19.7937 15.4604 19.3075 15.4423 18.752C15.4243 18.1964 15.6243 17.7103 16.0423 17.2937L23.5423 9.79365C23.7507 9.58532 23.9763 9.4381 24.2194 9.35198C24.4625 9.26587 24.7229 9.22212 25.0007 9.22074C25.2784 9.21935 25.5388 9.2631 25.7819 9.35198C26.025 9.44087 26.2507 9.5881 26.459 9.79365L33.959 17.2937C34.3757 17.7103 34.5757 18.1964 34.559 18.752C34.5423 19.3075 34.3423 19.7937 33.959 20.2103C33.5423 20.627 33.0479 20.8443 32.4757 20.8624C31.9034 20.8805 31.4083 20.6805 30.9902 20.2624L27.084 16.3562V31.252C27.084 31.8423 26.884 32.3374 26.484 32.7374C26.084 33.1374 25.5895 33.3367 25.0007 33.3353C24.4118 33.3339 23.9173 33.1339 23.5173 32.7353C23.1173 32.3367 22.9173 31.8423 22.9173 31.252V16.3562Z" fill="white"/>
</svg>
